<svg xmlns="http://www.w3.org/2000/svg" xmlns:svg="http://www.w3.org/2000/svg" xmlns:xlink="http://www.w3.org/1999/xlink" id="svg3639" width="48" height="48" version="1.1"><defs id="defs3641"><radialGradient id="radialGradient6295-0" cx="556" cy="1115.387" r="44" fx="556" fy="1115.387" gradientTransform="matrix(0.9936278,0,0,0.3495627,3.5429153,708.68473)" gradientUnits="userSpaceOnUse" xlink:href="#linearGradient13249-6-3"/><linearGradient id="linearGradient13249-6-3"><stop style="stop-color:#fff;stop-opacity:1" id="stop13251-6-5" offset="0"/><stop style="stop-color:#fff;stop-opacity:0" id="stop13253-9-5" offset="1"/></linearGradient><radialGradient id="radialGradient6297-8" cx="539.144" cy="1032.452" r="44" fx="539.144" fy="1032.452" gradientTransform="matrix(2.5434298,0,0,1.553224,-832.13128,-571.17705)" gradientUnits="userSpaceOnUse" xlink:href="#linearGradient4254-7"/><linearGradient id="linearGradient4254-7"><stop style="stop-color:#fff;stop-opacity:1" id="stop4256-17" offset="0"/><stop style="stop-color:#fff;stop-opacity:0" id="stop4258-0" offset="1"/></linearGradient><radialGradient id="radialGradient6576-6" cx="549.58" cy="1053.602" r="44" fx="549.58" fy="1053.602" gradientTransform="matrix(1.3773467,-1.791245e-7,1.7912446e-7,1.3773464,-207.83681,-395.55015)" gradientUnits="userSpaceOnUse" xlink:href="#linearGradient3541-12-0"/><linearGradient id="linearGradient3541-12-0"><stop id="stop3543-20-4" offset="0" style="stop-color:#fff;stop-opacity:1"/><stop style="stop-color:#babdb6;stop-opacity:1" id="stop5354-2-1" offset=".305"/><stop style="stop-color:#555753;stop-opacity:1" id="stop5352-17-3" offset=".633"/><stop style="stop-color:#888a85;stop-opacity:1" id="stop3545-51-0" offset=".857"/><stop id="stop3547-7-2" offset="1" style="stop-color:#2e3436;stop-opacity:1"/></linearGradient><linearGradient id="linearGradient6869-9" x1="720.777" x2="717.619" y1="374.9" y2="363.113" gradientTransform="translate(-1428.7632,365.14783)" gradientUnits="userSpaceOnUse" xlink:href="#linearGradient4264-7-7-4-6"/><linearGradient id="linearGradient4264-7-7-4-6"><stop style="stop-color:#000;stop-opacity:1" id="stop4266-78-1-3-0" offset="0"/><stop style="stop-color:#888a85;stop-opacity:1" id="stop4268-2-9-7-9" offset="1"/></linearGradient><linearGradient id="linearGradient6872-3" x1="720.777" x2="717.619" y1="374.9" y2="363.113" gradientTransform="matrix(1,0,0,0.64285714,307.36277,-268.66396)" gradientUnits="userSpaceOnUse" xlink:href="#linearGradient4264-8-1-0-9-5"/><linearGradient id="linearGradient4264-8-1-0-9-5"><stop style="stop-color:#000;stop-opacity:1" id="stop4266-7-9-5-9-4" offset="0"/><stop style="stop-color:#888a85;stop-opacity:1" id="stop4268-3-7-7-3-3" offset="1"/></linearGradient><radialGradient id="radialGradient5610-5" cx="540.907" cy="1027.581" r="45.023" fx="540.907" fy="1027.581" gradientTransform="matrix(1.7727271,0,0,1.7727271,-417.97349,-794.04003)" gradientUnits="userSpaceOnUse" xlink:href="#linearGradient4244-6-5"/><linearGradient id="linearGradient4244-6-5"><stop style="stop-color:#babdb6;stop-opacity:1" id="stop4246-6-3" offset="0"/><stop style="stop-color:#555753;stop-opacity:1" id="stop4248-9-8" offset="1"/></linearGradient><clipPath id="clipPath12885-6" clipPathUnits="userSpaceOnUse"><path id="path12888-7" d="m 600,1068 a 44,44 0 1 1 -88,0 44,44 0 1 1 88,0 z" transform="translate(-8,-8)" style="fill:#555753;fill-opacity:1;stroke:none;display:inline"/></clipPath><radialGradient id="radialGradient5612-3" cx="556" cy="1063.709" r="44" fx="556" fy="1063.709" gradientTransform="matrix(1.1388493,0,0,1.200468,-77.200227,-214.605)" gradientUnits="userSpaceOnUse" xlink:href="#linearGradient12863-6"/><linearGradient id="linearGradient12863-6"><stop style="stop-color:#babdb6;stop-opacity:1" id="stop12865-0" offset="0"/><stop id="stop12871-2" offset=".624" style="stop-color:#888a85;stop-opacity:1"/><stop style="stop-color:#2e3436;stop-opacity:1" id="stop12873-6" offset=".805"/><stop style="stop-color:#fff;stop-opacity:1" id="stop12867-9" offset="1"/></linearGradient><radialGradient id="radialGradient5614-3" cx="540.881" cy="1031.906" r="44" fx="540.881" fy="1031.906" gradientTransform="matrix(1.8604586,0,0,1.8604586,-459.48492,-891.43519)" gradientUnits="userSpaceOnUse" xlink:href="#linearGradient12897-0"/><linearGradient id="linearGradient12897-0"><stop style="stop-color:#fff;stop-opacity:1" id="stop12899-8" offset="0"/><stop id="stop3397-7" offset=".236" style="stop-color:#fff;stop-opacity:1"/><stop style="stop-color:#fff;stop-opacity:0" id="stop12901-65" offset="1"/></linearGradient><filter id="filter12907-2" color-interpolation-filters="sRGB"><feGaussianBlur id="feGaussianBlur12909-4" stdDeviation=".892"/></filter><linearGradient id="linearGradient5616-0" x1="534.774" x2="576.957" y1="1093.968" y2="1020.905" gradientUnits="userSpaceOnUse" xlink:href="#linearGradient3580-0"/><linearGradient id="linearGradient3580-0"><stop style="stop-color:#fff;stop-opacity:1" id="stop3582-6" offset="0"/><stop style="stop-color:#d3d7cf;stop-opacity:1" id="stop3584-8" offset="1"/></linearGradient><linearGradient id="linearGradient6781-5" x1="144" x2="144" y1="106.254" y2="91.981" gradientUnits="userSpaceOnUse" xlink:href="#linearGradient5530-4"/><linearGradient id="linearGradient5530-4"><stop style="stop-color:#babdb6;stop-opacity:1" id="stop5532-9" offset="0"/><stop style="stop-color:#555753;stop-opacity:1" id="stop5534-4" offset="1"/></linearGradient><linearGradient id="linearGradient3511" x1="144" x2="144" y1="106.254" y2="91.981" gradientUnits="userSpaceOnUse" xlink:href="#linearGradient5530-4"/><linearGradient id="linearGradient6783-6" x1="143.775" x2="143.775" y1="235.92" y2="221.919" gradientUnits="userSpaceOnUse" xlink:href="#linearGradient5530-4"/><linearGradient id="linearGradient3526" x1="143.775" x2="143.775" y1="235.92" y2="221.919" gradientUnits="userSpaceOnUse" xlink:href="#linearGradient5530-4"/><linearGradient id="linearGradient6785-8" x1="211.029" x2="211.029" y1="170.506" y2="157.494" gradientUnits="userSpaceOnUse" xlink:href="#linearGradient5530-4"/><linearGradient id="linearGradient3541" x1="211.029" x2="211.029" y1="170.506" y2="157.494" gradientUnits="userSpaceOnUse" xlink:href="#linearGradient5530-4"/><linearGradient id="linearGradient6787-3" x1="77.137" x2="77.137" y1="170.736" y2="157.235" gradientUnits="userSpaceOnUse" xlink:href="#linearGradient5530-4"/><linearGradient id="linearGradient3556" x1="77.137" x2="77.137" y1="170.736" y2="157.235" gradientUnits="userSpaceOnUse" xlink:href="#linearGradient5530-4"/><linearGradient id="linearGradient5626-2" x1="556" x2="552.652" y1="1111.303" y2="1085.869" gradientUnits="userSpaceOnUse" xlink:href="#linearGradient4849-8-4-3"/><linearGradient id="linearGradient4849-8-4-3"><stop style="stop-color:#fff;stop-opacity:1" id="stop4851-7-8-6" offset="0"/><stop style="stop-color:#fff;stop-opacity:0" id="stop4853-4-4-2" offset="1"/></linearGradient><filter id="filter4857-9-6-2" color-interpolation-filters="sRGB"><feGaussianBlur id="feGaussianBlur4859-2-9-4" stdDeviation=".88"/></filter><linearGradient id="linearGradient5606-7" x1="582.042" x2="582.042" y1="1102.414" y2="1023.992" gradientUnits="userSpaceOnUse" xlink:href="#linearGradient3453-8"/><linearGradient id="linearGradient3453-8"><stop style="stop-color:#000;stop-opacity:1" id="stop3455-3" offset="0"/><stop style="stop-color:#000;stop-opacity:0" id="stop3457-6" offset="1"/></linearGradient><filter id="filter3449-7" width="1.44" height="1.44" x="-.22" y="-.22" color-interpolation-filters="sRGB"><feGaussianBlur id="feGaussianBlur3451-8" stdDeviation="8.058"/></filter><linearGradient id="linearGradient7629" x1="582.042" x2="582.042" y1="1102.414" y2="1023.992" gradientUnits="userSpaceOnUse" xlink:href="#linearGradient3453-8"/><linearGradient id="linearGradient3637" x1="582.042" x2="582.042" y1="1102.414" y2="1023.992" gradientUnits="userSpaceOnUse" xlink:href="#linearGradient3453-8"/></defs><metadata id="metadata3644"/><g id="layer1" transform="translate(0,-1004.3622)"><g style="display:inline;enable-background:new" id="use6074" transform="matrix(0.22542576,0,0,0.23295729,-7.4507583,988.13468)"><path style="opacity:.4;fill:url(#linearGradient5606-7);fill-opacity:1;stroke:none;display:inline;filter:url(#filter3449-7);enable-background:new" id="path4544" d="m 600,1068 c 0,24.3005 -19.69947,44 -44,44 -24.30053,0 -44,-19.6995 -44,-44 0,-24.3005 19.69947,-44 44,-44 24.30053,0 44,19.6995 44,44 z" transform="matrix(1.7516202,0,0,0.4743969,-829.90078,-260.99919)"/><path style="opacity:.8;fill:url(#linearGradient3637);fill-opacity:1;stroke:none;display:inline;filter:url(#filter3449-7);enable-background:new" id="path4546" d="m 600,1068 c 0,24.3005 -19.69947,44 -44,44 -24.30053,0 -44,-19.6995 -44,-44 0,-24.3005 19.69947,-44 44,-44 24.30053,0 44,19.6995 44,44 z" transform="matrix(1.2481235,0,0,0.3380333,-549.95657,-111.36283)"/></g><g style="display:inline;enable-background:new" id="use6076" transform="translate(-694.9789,648.3622)"><path style="fill:none;stroke:url(#radialGradient5610-5);stroke-width:4.19047403;stroke-miterlimit:4;stroke-opacity:1;stroke-dasharray:none;display:inline;enable-background:new" id="path4448" d="m 600,1068 c 0,24.3005 -19.69947,44 -44,44 -24.30053,0 -44,-19.6995 -44,-44 0,-24.3005 19.69947,-44 44,-44 24.30053,0 44,19.6995 44,44 z" transform="matrix(0.47727297,0,0,0.47727297,454.63624,-130.72752)"/><g id="g4450" transform="matrix(0.21875002,0,0,0.21875002,688.5,343.125)"><g style="display:inline;enable-background:new" id="g4452" transform="matrix(2.1818181,0,0,2.1818181,-1051.6363,-2148.7272)"><g id="g4454" clip-path="url(#clipPath12885-6)"><path style="fill:url(#radialGradient5612-3);fill-opacity:1;stroke:none" id="path4456" d="m 600,1068 c 0,24.3005 -19.69947,44 -44,44 -24.30053,0 -44,-19.6995 -44,-44 0,-24.3005 19.69947,-44 44,-44 24.30053,0 44,19.6995 44,44 z" transform="translate(-8,-8)"/><path style="fill:url(#radialGradient5614-3);fill-opacity:1;stroke:none;display:inline" id="path4458" d="m 600,1068 c 0,24.3005 -19.69947,44 -44,44 -24.30053,0 -44,-19.6995 -44,-44 0,-24.3005 19.69947,-44 44,-44 24.30053,0 44,19.6995 44,44 z" transform="translate(-8.0000005,-8)"/><path id="path4460" d="m 600,1068 c 0,24.3005 -19.69947,44 -44,44 -24.30053,0 -44,-19.6995 -44,-44 0,-24.3005 19.69947,-44 44,-44 24.30053,0 44,19.6995 44,44 z" transform="matrix(0.83749189,0,0,0.83749189,82.354503,165.55866)" style="fill:#888a85;stroke:#888a85;stroke-width:5.00360203;stroke-linecap:round;stroke-linejoin:round;stroke-miterlimit:4;stroke-opacity:1;stroke-dasharray:none;display:inline;filter:url(#filter12907-2)"/></g><path id="path4462" d="m 600,1068 c 0,24.3005 -19.69947,44 -44,44 -24.30053,0 -44,-19.6995 -44,-44 0,-24.3005 19.69947,-44 44,-44 24.30053,0 44,19.6995 44,44 z" transform="matrix(0.805203,0,0,0.805203,100.30713,200.04319)" style="fill:#888a85;stroke:#2e3436;stroke-width:2.60212398;stroke-linecap:round;stroke-linejoin:round;stroke-miterlimit:4;stroke-opacity:1;stroke-dasharray:none;display:inline;filter:url(#filter12907-2)"/></g><g id="g4464" transform="translate(10,0)"><path id="path4466" d="m 600,1068 c 0,24.3005 -19.69947,44 -44,44 -24.30053,0 -44,-19.6995 -44,-44 0,-24.3005 19.69947,-44 44,-44 24.30053,0 44,19.6995 44,44 z" transform="matrix(1.7662308,0,0,1.7662308,-848.02435,-1722.3347)" style="fill:url(#linearGradient5616-0);fill-opacity:1;stroke:none;display:inline;enable-background:new"/><g style="opacity:.2;fill:#000" id="g4468" transform="matrix(1.0456695,0,0,1.0456695,-16.576394,-7.4897813)"><path style="fill:#000;fill-opacity:1;stroke:none;display:inline;enable-background:new" id="path4470" d="m 600,1068 c 0,24.3005 -19.69947,44 -44,44 -24.30053,0 -44,-19.6995 -44,-44 0,-24.3005 19.69947,-44 44,-44 24.30053,0 44,19.6995 44,44 z" transform="matrix(0.05904885,0.03409187,-0.03409187,0.05904885,180.07888,25.689011)"/><path style="fill:#000;fill-opacity:1;stroke:none;display:inline;enable-background:new" id="path4472" d="m 600,1068 c 0,24.3005 -19.69947,44 -44,44 -24.30053,0 -44,-19.6995 -44,-44 0,-24.3005 19.69947,-44 44,-44 24.30053,0 44,19.6995 44,44 z" transform="matrix(0.05904885,0.03409187,-0.03409187,0.05904885,115.07888,138.27231)"/><path style="fill:#000;fill-opacity:1;stroke:none;display:inline;enable-background:new" id="path4474" d="m 600,1068 c 0,24.3005 -19.69947,44 -44,44 -24.30053,0 -44,-19.6995 -44,-44 0,-24.3005 19.69947,-44 44,-44 24.30053,0 44,19.6995 44,44 z" transform="matrix(0.03409187,0.05904885,-0.05904885,0.03409187,244.40066,62.258638)"/><path style="fill:#000;fill-opacity:1;stroke:none;display:inline;enable-background:new" id="path4476" d="m 600,1068 c 0,24.3005 -19.69947,44 -44,44 -24.30053,0 -44,-19.6995 -44,-44 0,-24.3005 19.69947,-44 44,-44 24.30053,0 44,19.6995 44,44 z" transform="matrix(0.03409187,0.05904885,-0.05904885,0.03409187,131.81736,127.25864)"/><path style="fill:#000;fill-opacity:1;stroke:none;display:inline;enable-background:new" id="path4478" d="m 600,1068 c 0,24.3005 -19.69947,44 -44,44 -24.30053,0 -44,-19.6995 -44,-44 0,-24.3005 19.69947,-44 44,-44 24.30053,0 44,19.6995 44,44 z" transform="matrix(-0.05904885,0.03409187,0.03409187,0.05904885,107.92096,25.689013)"/><path style="fill:#000;fill-opacity:1;stroke:none;display:inline;enable-background:new" id="path4480" d="m 600,1068 c 0,24.3005 -19.69947,44 -44,44 -24.30053,0 -44,-19.6995 -44,-44 0,-24.3005 19.69947,-44 44,-44 24.30053,0 44,19.6995 44,44 z" transform="matrix(-0.05904885,0.03409187,0.03409187,0.05904885,172.92096,138.27231)"/><path style="fill:#000;fill-opacity:1;stroke:none;display:inline;enable-background:new" id="path4482" d="m 600,1068 c 0,24.3005 -19.69947,44 -44,44 -24.30053,0 -44,-19.6995 -44,-44 0,-24.3005 19.69947,-44 44,-44 24.30053,0 44,19.6995 44,44 z" transform="matrix(-0.03409187,0.05904885,0.05904885,0.03409187,43.599175,62.258632)"/><path style="fill:#000;fill-opacity:1;stroke:none;display:inline;enable-background:new" id="path4484" d="m 600,1068 c 0,24.3005 -19.69947,44 -44,44 -24.30053,0 -44,-19.6995 -44,-44 0,-24.3005 19.69947,-44 44,-44 24.30053,0 44,19.6995 44,44 z" transform="matrix(-0.03409187,0.05904885,0.05904885,0.03409187,156.18248,127.25863)"/></g><g id="g4486" transform="translate(-10,0)"><text style="font-size:20px;font-style:normal;font-variant:normal;font-weight:700;font-stretch:normal;text-align:center;text-anchor:middle;fill:#fff;stroke:#fff;stroke-width:4.57142782;display:inline;enable-background:new;font-family:Liberation Sans;-inkscape-font-specification:Bitstream Vera Sans Bold" id="text4488" x="143.775" y="106.965" xml:space="preserve"><tspan id="tspan4490" x="143.775" y="106.965" style="stroke-width:4.57142782">12</tspan></text><text style="font-size:20px;font-style:normal;font-variant:normal;font-weight:700;font-stretch:normal;text-align:center;text-anchor:middle;fill:url(#linearGradient6781-5);fill-opacity:1;stroke:none;font-family:Liberation Sans;-inkscape-font-specification:Bitstream Vera Sans Bold" id="text4492" x="143.775" y="105.965" xml:space="preserve"><tspan id="tspan4494" x="143.775" y="105.965" style="fill:url(#linearGradient6781-5);fill-opacity:1">12</tspan></text><text style="font-size:20px;font-style:normal;font-variant:normal;font-weight:700;font-stretch:normal;text-align:center;text-anchor:middle;fill:#fff;stroke:#fff;stroke-width:4.57142782;display:inline;enable-background:new;font-family:Liberation Sans;-inkscape-font-specification:Bitstream Vera Sans Bold" id="text4496" x="143.775" y="236.805" xml:space="preserve"><tspan id="tspan4498" x="143.775" y="236.805" style="stroke-width:4.57142782">6</tspan></text><text style="font-size:20px;font-style:normal;font-variant:normal;font-weight:700;font-stretch:normal;text-align:center;text-anchor:middle;fill:url(#linearGradient6783-6);stroke:none;display:inline;enable-background:new;font-family:Liberation Sans;-inkscape-font-specification:Bitstream Vera Sans Bold" id="text4500" x="143.775" y="235.805" xml:space="preserve"><tspan id="tspan4502" x="143.775" y="235.805" style="fill:url(#linearGradient6783-6)">6</tspan></text><text style="font-size:20px;font-style:normal;font-variant:normal;font-weight:700;font-stretch:normal;text-align:center;text-anchor:middle;fill:#fff;stroke:#fff;stroke-width:4.57142782;display:inline;enable-background:new;font-family:Liberation Sans;-inkscape-font-specification:Bitstream Vera Sans Bold" id="text4504" x="211.166" y="171.87" xml:space="preserve"><tspan id="tspan4506" x="211.166" y="171.87" style="stroke-width:4.57142782">3</tspan></text><text style="font-size:20px;font-style:normal;font-variant:normal;font-weight:700;font-stretch:normal;text-align:center;text-anchor:middle;fill:url(#linearGradient6785-8);stroke:none;display:inline;enable-background:new;font-family:Liberation Sans;-inkscape-font-specification:Bitstream Vera Sans Bold" id="text4508" x="211.166" y="170.87" xml:space="preserve"><tspan id="tspan4510" x="211.166" y="170.87" style="fill:url(#linearGradient6785-8)">3</tspan></text><text style="font-size:20px;font-style:normal;font-variant:normal;font-weight:700;font-stretch:normal;text-align:center;text-anchor:middle;fill:#fff;stroke:#fff;stroke-width:4.57142782;display:inline;enable-background:new;font-family:Liberation Sans;-inkscape-font-specification:Bitstream Vera Sans Bold" id="text4512" x="77.166" y="171.87" xml:space="preserve"><tspan id="tspan4514" x="77.166" y="171.87" style="stroke-width:4.57142782">9</tspan></text><text style="font-size:20px;font-style:normal;font-variant:normal;font-weight:700;font-stretch:normal;text-align:center;text-anchor:middle;fill:url(#linearGradient6787-3);stroke:none;display:inline;enable-background:new;font-family:Liberation Sans;-inkscape-font-specification:Bitstream Vera Sans Bold" id="text4516" x="77.166" y="170.87" xml:space="preserve"><tspan id="tspan4518" x="77.166" y="170.87" style="fill:url(#linearGradient6787-3)">9</tspan></text></g></g></g><path style="opacity:.2;fill:none;stroke:#fff;stroke-width:2.14634037;stroke-miterlimit:4;stroke-opacity:1;stroke-dasharray:none;display:inline;enable-background:new" id="path4520" d="m 600,1068 c 0,24.3005 -19.69947,44 -44,44 -24.30053,0 -44,-19.6995 -44,-44 0,-24.3005 19.69947,-44 44,-44 24.30053,0 44,19.6995 44,44 z" transform="matrix(0.46590933,0,0,0.46590933,460.95442,-118.59116)"/><path style="opacity:.5550661;fill:none;stroke:url(#linearGradient5626-2);stroke-width:2.39686704;stroke-miterlimit:4;stroke-dasharray:none;display:inline;filter:url(#filter4857-9-6-2);enable-background:new" id="path4522" d="m 600,1068 c 0,24.3005 -19.69947,44 -44,44 -24.30053,0 -44,-19.6995 -44,-44 0,-24.3005 19.69947,-44 44,-44 24.30053,0 44,19.6995 44,44 z" transform="matrix(0.41721124,0,0,0.41721124,488.15556,-66.58162)"/></g><rect style="opacity:.1;color:#000;fill:#000;fill-opacity:1;fill-rule:nonzero;stroke:none;stroke-width:1;marker:none;visibility:visible;display:inline;overflow:visible;enable-background:new" id="rect4262-7-7-9-0-7" width="2" height="9" x="1027.363" y="-35.021" transform="matrix(0,1,-1,0,0,0)"/><rect style="opacity:.1;color:#000;fill:#000;fill-opacity:1;fill-rule:nonzero;stroke:none;stroke-width:1;marker:none;visibility:visible;display:inline;overflow:visible;enable-background:new" id="rect4262-77-9-6-1" width="2" height="14" x="-710.47" y="730.855" transform="matrix(0.70710678,-0.70710678,0.70710678,0.70710678,0,0)"/><rect style="color:#000;fill:url(#linearGradient6872-3);fill-opacity:1;fill-rule:nonzero;stroke:none;stroke-width:1;marker:none;visibility:visible;display:inline;overflow:visible;enable-background:new" id="rect4262-7-7-8-1" width="2" height="9" x="1026.363" y="-34.021" transform="matrix(0,1,-1,0,0,0)"/><rect style="color:#000;fill:url(#linearGradient6869-9);fill-opacity:1;fill-rule:nonzero;stroke:none;stroke-width:1;marker:none;visibility:visible;display:inline;overflow:visible;enable-background:new" id="rect4262-77-97-1" width="2" height="14" x="-709.763" y="730.148" transform="matrix(0.70710678,-0.70710678,0.70710678,0.70710678,0,0)"/><path id="use4604-0-7" d="m 600,1068 a 44,44 0 1 1 -88,0 44,44 0 1 1 88,0 z" transform="matrix(0.05681172,0,0,0.05681172,-6.5661183,966.68757)" style="fill:url(#radialGradient6576-6);fill-opacity:1;stroke:#555753;stroke-width:17.6020031;stroke-miterlimit:4;stroke-dasharray:none;display:inline;enable-background:new"/><g style="display:inline;enable-background:new" id="use6078" transform="matrix(0.94444449,0,0,0.94444449,-654.97894,669.41774)"><path style="opacity:.7;fill:url(#radialGradient6295-0);fill-opacity:1;stroke:#babdb6;stroke-width:2.66218281;stroke-miterlimit:4;stroke-dasharray:none;display:inline;enable-background:new" id="path4438" d="m 600,1068 c 0,24.3005 -19.69947,44 -44,44 -24.30053,0 -44,-19.6995 -44,-44 0,-24.3005 19.69947,-44 44,-44 24.30053,0 44,19.6995 44,44 z" transform="matrix(0.39772755,0,0,0.39772755,498.86347,-45.773011)"/><path style="opacity:.86976743;fill:url(#radialGradient6297-8);fill-opacity:1;stroke:none;display:inline;enable-background:new" id="path4440" d="m 600,1068 c 0,24.3005 -19.69947,44 -44,44 -24.30053,0 -44,-19.6995 -44,-44 0,-24.3005 19.69947,-44 44,-44 24.30053,0 44,19.6995 44,44 z" transform="matrix(0.25911855,0,0,0.15265075,575.93008,206.95338)"/></g></g></svg>