<svg xmlns="http://www.w3.org/2000/svg" xmlns:cc="http://web.resource.org/cc/" xmlns:svg="http://www.w3.org/2000/svg" xmlns:xlink="http://www.w3.org/1999/xlink" id="svg3304" width="48" height="48"><defs id="defs3306"><linearGradient id="linearGradient2804"><stop style="stop-color:black;stop-opacity:0" id="stop2806" offset="0"/><stop id="stop2812" offset=".5" style="stop-color:black;stop-opacity:1"/><stop style="stop-color:black;stop-opacity:0" id="stop2808" offset="1"/></linearGradient><linearGradient id="linearGradient2831" x1="21.875" x2="21.875" y1="48.001" y2="40" gradientUnits="userSpaceOnUse" xlink:href="#linearGradient2804"/><radialGradient id="radialGradient2829" cx="1" cy="44" r="5" fx="1" fy="44" gradientTransform="matrix(2,0,0,0.8,36,8.8)" gradientUnits="userSpaceOnUse" xlink:href="#linearGradient2781"/><linearGradient id="linearGradient2781"><stop style="stop-color:black;stop-opacity:1" id="stop2783" offset="0"/><stop style="stop-color:black;stop-opacity:0" id="stop2785" offset="1"/></linearGradient><radialGradient id="radialGradient2827" cx="1" cy="44" r="5" fx="1" fy="44" gradientTransform="matrix(2,0,0,0.8,-13,-79.2)" gradientUnits="userSpaceOnUse" xlink:href="#linearGradient2781"/><linearGradient id="linearGradient5137"><stop style="stop-color:#eeeeec;stop-opacity:1" id="stop5139" offset="0"/><stop style="stop-color:#e6e6e3;stop-opacity:1" id="stop5141" offset="1"/></linearGradient><linearGradient id="linearGradient6240"><stop style="stop-color:#fff;stop-opacity:1" id="stop6242" offset="0"/><stop style="stop-color:#fff;stop-opacity:0" id="stop6244" offset="1"/></linearGradient><linearGradient id="linearGradient11400"><stop style="stop-color:#000;stop-opacity:1" id="stop11402" offset="0"/><stop style="stop-color:#000;stop-opacity:0" id="stop11404" offset="1"/></linearGradient><linearGradient id="linearGradient11406" x1="23.155" x2="23.529" y1="34.573" y2="40.22" gradientTransform="translate(0,0.7954955)" gradientUnits="userSpaceOnUse" xlink:href="#linearGradient11400"/><linearGradient id="linearGradient5147" x1="17.248" x2="39.904" y1="6.376" y2="38.876" gradientTransform="translate(0,0.7954955)" gradientUnits="userSpaceOnUse" xlink:href="#linearGradient5137"/><linearGradient id="linearGradient5223" x1="31.743" x2="31.861" y1="37.842" y2="43.826" gradientTransform="translate(0,0.7954955)" gradientUnits="userSpaceOnUse" xlink:href="#linearGradient5137"/><linearGradient id="linearGradient7025"><stop id="stop7027" offset="0" style="stop-color:#e6ce46;stop-opacity:1"/><stop id="stop7029" offset="1" style="stop-color:#d6ba1c;stop-opacity:1"/></linearGradient><linearGradient id="linearGradient22122"><stop id="stop22124" offset="0" style="stop-color:black;stop-opacity:1"/><stop id="stop22126" offset="1" style="stop-color:black;stop-opacity:0"/></linearGradient><linearGradient id="linearGradient22140"><stop id="stop22142" offset="0" style="stop-color:black;stop-opacity:0"/><stop style="stop-color:black;stop-opacity:1" id="stop22148" offset=".5"/><stop id="stop22144" offset="1" style="stop-color:black;stop-opacity:0"/></linearGradient><radialGradient id="radialGradient4770" cx="7" cy="39.465" r="3.5" fx="7" fy="39.465" gradientTransform="matrix(0,-1.000001,1.142856,0,-41.10259,45.50001)" gradientUnits="userSpaceOnUse" xlink:href="#linearGradient22122"/><radialGradient id="radialGradient4772" cx="7" cy="39.465" r="3.5" fx="7" fy="39.465" gradientTransform="matrix(0,-1.000001,1.142856,0,-89.10259,-31.49999)" gradientUnits="userSpaceOnUse" xlink:href="#linearGradient22122"/><linearGradient id="linearGradient4774" x1="18.142" x2="18.142" y1="35" y2="42.041" gradientUnits="userSpaceOnUse" xlink:href="#linearGradient22140"/><linearGradient id="linearGradient4776" x1="13.63" x2="25.208" y1="28.5" y2="41.181" gradientTransform="translate(53,1.428571)" gradientUnits="userSpaceOnUse" xlink:href="#linearGradient7025"/><linearGradient id="linearGradient4778" x1="20.157" x2="20.157" y1="5.1" y2="26.039" gradientTransform="translate(7.843e-3,0.7954955)" gradientUnits="userSpaceOnUse" xlink:href="#linearGradient6240"/></defs><metadata id="metadata3309"/><g id="layer1"><g id="g2822" transform="matrix(0.9308511,0,0,1.037397,1.6941489,-1.795056)" style="opacity:.3"><rect id="rect1892" width="10" height="8" x="-11" y="-48" transform="scale(-1,-1)" style="opacity:1;color:#000;fill:url(#radialGradient2827);fill-opacity:1;fill-rule:nonzero;stroke:none;stroke-width:1;stroke-linecap:square;stroke-linejoin:round;marker:none;marker-start:none;marker-mid:none;marker-end:none;stroke-miterlimit:4;stroke-dasharray:none;stroke-dashoffset:1.20000057;stroke-opacity:1;visibility:visible;display:inline;overflow:visible"/><rect id="rect2789" width="10" height="8" x="38" y="40" style="opacity:1;color:#000;fill:url(#radialGradient2829);fill-opacity:1;fill-rule:nonzero;stroke:none;stroke-width:1;stroke-linecap:square;stroke-linejoin:round;marker:none;marker-start:none;marker-mid:none;marker-end:none;stroke-miterlimit:4;stroke-dasharray:none;stroke-dashoffset:1.20000057;stroke-opacity:1;visibility:visible;display:inline;overflow:visible"/><rect id="rect2793" width="27" height="8" x="11" y="40" style="opacity:1;color:#000;fill:url(#linearGradient2831);fill-opacity:1;fill-rule:nonzero;stroke:none;stroke-width:1;stroke-linecap:square;stroke-linejoin:round;marker:none;marker-start:none;marker-mid:none;marker-end:none;stroke-miterlimit:4;stroke-dasharray:none;stroke-dashoffset:1.20000057;stroke-opacity:1;visibility:visible;display:inline;overflow:visible"/></g><rect style="fill:none;fill-opacity:.75;fill-rule:evenodd;stroke:none;stroke-width:1px;stroke-linecap:butt;stroke-linejoin:miter;stroke-opacity:1" id="rect4784" width="48" height="48" x="0" y=".795"/><path style="opacity:1;color:#000;fill:url(#linearGradient5223);fill-opacity:1;fill-rule:evenodd;stroke:#888a85;stroke-width:1;stroke-linecap:butt;stroke-linejoin:miter;marker:none;marker-start:none;marker-mid:none;marker-end:none;stroke-miterlimit:4;stroke-dasharray:none;stroke-dashoffset:0;stroke-opacity:1;visibility:visible;display:inline;overflow:visible" id="path9222" d="M 14.375479,36.328843 C 14.375479,36.328843 15.592355,41.263443 10.51915,41.309767 C 8.0888743,41.331672 8.5866723,45.344918 8.5866723,45.344918 L 39.433139,45.313545 C 39.433139,45.313545 39.851577,41.418182 37.410922,41.372513 C 32.423455,41.280374 33.600393,36.266098 33.600393,36.266098 L 14.375479,36.328843 z"/><path style="fill:url(#linearGradient5147);fill-opacity:1;fill-rule:evenodd;stroke:#888a85;stroke-width:1;stroke-linecap:butt;stroke-linejoin:miter;stroke-miterlimit:4;stroke-opacity:1" id="rect5040" d="M 4.8886262,4.2739318 L 43.01746,4.2739318 C 45.042579,4.2739318 46.518438,5.7015863 46.518438,7.9000726 L 46.529388,34.103908 C 46.529388,35.795975 46.001041,36.319137 44.494732,36.319137 L 3.5320635,36.300202 C 2.3527922,36.271409 1.513468,35.805541 1.4976345,34.280899 L 1.5128113,7.7123281 C 1.5128113,5.9385022 3.0522187,4.2739318 4.8886262,4.2739318 z"/><rect style="fill:#555753;fill-opacity:1;fill-rule:evenodd;stroke:#2e3436;stroke-width:1px;stroke-linecap:butt;stroke-linejoin:miter;stroke-opacity:1" id="rect9208" width="37" height="22.997" x="5.506" y="8.297"/><path style="fill:none;fill-opacity:1;fill-rule:evenodd;stroke:#fff;stroke-width:1;stroke-linecap:butt;stroke-linejoin:miter;stroke-miterlimit:4;stroke-opacity:1" id="path5145" d="M 4.875,5.0625 C 3.5670573,5.0625 2.375,6.3571498 2.375,7.625 L 2.375,34.1875 C 2.3812657,34.79084 2.515801,34.970853 2.65625,35.09375 C 2.796699,35.216647 3.0858905,35.332113 3.5625,35.34375 L 44.5,35.34375 C 45.151173,35.34375 45.356981,35.24273 45.4375,35.15625 C 45.518019,35.06977 45.65625,34.755549 45.65625,34 L 45.65625,7.8125 C 45.65625,6.0053499 44.645463,5.0624999 43.03125,5.0625 L 4.875,5.0625 z" xlink:href="#rect5040"/><path style="opacity:.6;fill:url(#linearGradient11406);fill-opacity:1;fill-rule:evenodd;stroke:none;stroke-width:1px;stroke-linecap:butt;stroke-linejoin:miter;stroke-opacity:1" id="path10672" d="M 13.992156,36.834708 C 14.075817,39.007257 13.708803,39.746151 12.358532,40.509939 L 35.973934,41.807257 C 35.024915,40.638629 33.644523,38.873923 34.020993,36.819022 L 13.992156,36.834708 z"/><path style="fill:none;fill-opacity:1;fill-rule:evenodd;stroke:#8d8d8f;stroke-width:1px;stroke-linecap:round;stroke-linejoin:miter;stroke-opacity:.43902438" id="path6575" d="M 9.9921262,42.291555 C 16.698819,42.293524 37.78891,42.291555 37.78891,42.291555"/><path id="path8029" d="M 9.647928,43.299429 C 16.354621,43.301398 38.367789,43.299429 38.367789,43.299429" style="fill:none;fill-opacity:1;fill-rule:evenodd;stroke:#fff;stroke-width:1px;stroke-linecap:round;stroke-linejoin:miter;stroke-opacity:1"/><path style="opacity:.4;fill:url(#linearGradient4778);fill-opacity:1;fill-rule:evenodd;stroke:none;stroke-width:1px;stroke-linecap:butt;stroke-linejoin:miter;stroke-opacity:1" id="path4073" d="M 6.031372,8.8268676 L 6.031372,26.834708 C 22.475817,25.480459 28.630065,16.722289 41.999999,15.807256 L 42,8.7954956 L 6.031372,8.8268676 z"/><g id="g4754" transform="translate(-46.77135,-7.3370294)"><g style="opacity:.3" id="g22150" transform="matrix(0.916667,0,0,0.714282,49.771334,11.132681)"><rect style="opacity:1;fill:url(#radialGradient4770);fill-opacity:1;stroke:none;stroke-width:3;stroke-linecap:square;stroke-linejoin:miter;stroke-miterlimit:10;stroke-dasharray:none;stroke-dashoffset:1.20000057;stroke-opacity:1" id="rect22120" width="4" height="7" x="0" y="35"/><rect style="opacity:1;fill:url(#radialGradient4772);fill-opacity:1;stroke:none;stroke-width:3;stroke-linecap:square;stroke-linejoin:miter;stroke-miterlimit:10;stroke-dasharray:none;stroke-dashoffset:1.20000057;stroke-opacity:1" id="rect22134" width="4" height="7" x="-48" y="-42" transform="scale(-1,-1)"/><rect style="opacity:1;fill:url(#linearGradient4774);fill-opacity:1;stroke:none;stroke-width:3;stroke-linecap:square;stroke-linejoin:miter;stroke-miterlimit:10;stroke-dasharray:none;stroke-dashoffset:1.20000057;stroke-opacity:1" id="rect22138" width="40" height="7" x="4" y="35"/></g><g id="g4743"><g id="g10824" transform="translate(-5.228666,-6.29601)"><path id="path4319" d="M 57.5,14.928571 L 57.5,44.928571 L 96.5,44.928571 L 57.5,14.928571 z M 63.5,27.928571 L 78.5,38.928571 L 63.5,38.928571 L 63.5,27.928571 z" style="fill:url(#linearGradient4776);fill-opacity:1;fill-rule:evenodd;stroke:#a38503;stroke-width:1.00000024px;stroke-linecap:butt;stroke-linejoin:miter;stroke-opacity:1"/><path id="path4326" d="M 61.5,44.928571 L 61.5,41.928571" style="fill:none;fill-opacity:.75;fill-rule:evenodd;stroke:#a38503;stroke-width:1px;stroke-linecap:round;stroke-linejoin:miter;stroke-opacity:1"/><path id="path4328" d="M 67.5,44.928571 L 67.5,41.928571" style="fill:none;fill-opacity:.75;fill-rule:evenodd;stroke:#a38503;stroke-width:1px;stroke-linecap:round;stroke-linejoin:miter;stroke-opacity:1"/><path id="path4330" d="M 73.5,44.928571 L 73.5,41.964285" style="fill:none;fill-opacity:.75;fill-rule:evenodd;stroke:#a38503;stroke-width:1px;stroke-linecap:round;stroke-linejoin:miter;stroke-opacity:1"/><path id="path4332" d="M 79.5,44.928571 L 79.5,41.928571" style="fill:none;fill-opacity:.75;fill-rule:evenodd;stroke:#a38503;stroke-width:1px;stroke-linecap:round;stroke-linejoin:miter;stroke-opacity:1"/><path id="path4334" d="M 85.5,44.928571 L 85.5,41.928571" style="fill:none;fill-opacity:.75;fill-rule:evenodd;stroke:#a38503;stroke-width:1px;stroke-linecap:round;stroke-linejoin:miter;stroke-opacity:1"/><path id="path6126" d="M 58.500002,16.928575 L 58.500002,43.928586 L 93.500014,43.928586 L 58.500002,16.928575 z" style="opacity:.4;fill:none;fill-opacity:.75;fill-rule:evenodd;stroke:#fff;stroke-width:1.0000006px;stroke-linecap:butt;stroke-linejoin:miter;stroke-opacity:1"/></g><path style="opacity:.4;fill:none;fill-opacity:.75;fill-rule:evenodd;stroke:#fff;stroke-width:1px;stroke-linecap:butt;stroke-linejoin:miter;stroke-opacity:1" id="path12221" d="M 9.5017474,38.542446 L 9.4575532,24.532894 L 28.541592,38.563262 L 9.5017474,38.542446 z" transform="translate(47.771334,-4.867439)"/></g></g></g></svg>