<svg xmlns="http://www.w3.org/2000/svg" xmlns:svg="http://www.w3.org/2000/svg" id="svg86343" width="148" height="192" version="1.1"><metadata id="metadata86349"/><g style="display:inline" id="g10545" transform="translate(592.43375,-287.62088)"><path id="rect10526" d="m 344.125,384.88832 c -1.9944,0 -3.59375,1.59935 -3.59375,3.59375 L 340.53125,516 338,545.125 c -0.1873,2.15512 1.62589,3.92035 3.75,4.125 l 4.625,10.90625 1.53125,0 0,2.15625 3.61536,8.57242 1.18546,0.0214 0.44918,3.78119 0.33938,-3.7414 1.14797,-0.0687 3.76265,-8.53366 0,-2.1875 1.53125,0 4.65625,-10.96875 c 1.96694,-0.35188 3.54637,-2.02216 3.40625,-4.0625 L 365.53125,516 l 0,-127.51793 c 0,-1.9944 -1.59935,-3.59375 -3.59375,-3.59375 z" transform="translate(-928.4063,-95.84375)" style="color:#000;display:inline;overflow:visible;visibility:visible;fill:#d3d7cf;fill-opacity:1;fill-rule:nonzero;stroke:#babdb6;stroke-width:1px;stroke-linecap:butt;stroke-linejoin:miter;stroke-miterlimit:4;stroke-dasharray:none;stroke-dashoffset:0;stroke-opacity:1;marker:none;enable-background:accumulate"/><rect style="color:#000;fill:#eeeeec;fill-opacity:1;fill-rule:nonzero;stroke:#babdb6;stroke-width:1px;stroke-linecap:butt;stroke-linejoin:miter;stroke-miterlimit:4;stroke-opacity:1;stroke-dasharray:none;stroke-dashoffset:0;marker:none;visibility:visible;display:inline;overflow:visible;enable-background:accumulate" id="rect10541" width="8.75" height="22" x="-579.656" y="385.906" rx="3.25" ry="3.25"/><rect style="color:#000;fill:#eeeeec;fill-opacity:1;fill-rule:nonzero;stroke:#babdb6;stroke-width:1px;stroke-linecap:butt;stroke-linejoin:miter;stroke-miterlimit:4;stroke-opacity:1;stroke-dasharray:none;stroke-dashoffset:0;marker:none;visibility:visible;display:inline;overflow:visible;enable-background:accumulate" id="rect10543" width="8.75" height="12.25" x="-579.656" y="410.906" rx="3.25" ry="3.25"/><rect style="color:#000;fill:#eeeeec;fill-opacity:1;fill-rule:nonzero;stroke:#babdb6;stroke-width:1px;stroke-linecap:butt;stroke-linejoin:miter;stroke-miterlimit:4;stroke-opacity:1;stroke-dasharray:none;stroke-dashoffset:0;marker:none;visibility:visible;display:inline;overflow:visible;enable-background:accumulate" id="rect10544" width="8.75" height="8.75" x="-579.656" y="429.156" rx="3.25" ry="3.25"/></g><g style="opacity:.2;display:inline" id="g10631" transform="translate(592.43375,-302.48416)"><path style="fill:none;stroke:#000;stroke-width:1px;stroke-linecap:butt;stroke-linejoin:miter;stroke-opacity:1" id="path3342" d="m -571.1563,413.06786 35.28033,0 0,-89.17947 82.46967,0"/><path style="fill:none;stroke:#000;stroke-width:1px;stroke-linecap:butt;stroke-linejoin:miter;stroke-opacity:1" id="path3344" d="m -571.1563,430.06786 48.28033,0 0,-64.17947 69.46967,0"/><path style="fill:none;stroke:#000;stroke-width:1px;stroke-linecap:butt;stroke-linejoin:miter;stroke-opacity:1" id="path3344" d="m -571.1563,448.31786 61.28033,0 0,-40.43396 56.46967,0"/><path style="fill:none;stroke:#000;stroke-width:1px;stroke-linecap:butt;stroke-linejoin:miter;stroke-opacity:1" id="path10629" d="m -575.4063,492.06786 78.53033,0 0,-43.17947 43.46967,0"/></g></svg>