<svg xmlns="http://www.w3.org/2000/svg" xmlns:svg="http://www.w3.org/2000/svg" id="svg86343" width="148" height="192" version="1.1"><metadata id="metadata86349"/><g style="display:inline" id="g10545" transform="translate(592.43375,-287.62088)"><path id="rect10526" d="m 349.69531,384.96463 c -2.3083,0 -3.2326,1.49535 -3.69531,4.51323 L 345.53125,396 344.125,396 c -1.9944,0 -3.59375,1.59935 -3.59375,3.59375 L 340.53125,516 338,545.125 c -0.1873,2.15512 1.62589,3.92035 3.75,4.125 l 4.625,10.90625 1.53125,0 0,2.15625 3.61536,8.57242 1.18546,0.0214 0.44918,3.78119 0.33938,-3.7414 1.14797,-0.0687 3.76265,-8.53366 0,-2.1875 1.53125,0 4.65625,-10.96875 c 1.96694,-0.35188 3.54637,-2.02216 3.40625,-4.0625 L 365.53125,516 l 0,-116.40625 c 0,-1.9944 -1.59935,-3.59375 -3.59375,-3.59375 l -1.40625,0 L 360,389.47786 c -0.23272,-2.85711 -1.26201,-4.51323 -3.69531,-4.51323 z" transform="translate(-928.4063,-95.84375)" style="color:#000;fill:#d3d7cf;fill-opacity:1;fill-rule:nonzero;stroke:#babdb6;stroke-width:1px;stroke-linecap:butt;stroke-linejoin:miter;stroke-miterlimit:4;stroke-opacity:1;stroke-dasharray:none;stroke-dashoffset:0;marker:none;visibility:visible;display:inline;overflow:visible;enable-background:accumulate"/><rect style="color:#000;fill:#eeeeec;fill-opacity:1;fill-rule:nonzero;stroke:#babdb6;stroke-width:1px;stroke-linecap:butt;stroke-linejoin:miter;stroke-miterlimit:4;stroke-opacity:1;stroke-dasharray:none;stroke-dashoffset:0;marker:none;visibility:visible;display:inline;overflow:visible;enable-background:accumulate" id="rect10541" width="8.75" height="22" x="-579.656" y="385.906" rx="3.25" ry="3.25"/><rect id="rect10543" width="8.75" height="12.25" x="-579.656" y="410.906" rx="3.25" ry="3.25" style="color:#000;fill:#eeeeec;fill-opacity:1;fill-rule:nonzero;stroke:#babdb6;stroke-width:1px;stroke-linecap:butt;stroke-linejoin:miter;stroke-miterlimit:4;stroke-opacity:1;stroke-dasharray:none;stroke-dashoffset:0;marker:none;visibility:visible;display:inline;overflow:visible;enable-background:accumulate"/></g><g style="opacity:.2;display:inline" id="g10631" transform="translate(592.43375,-302.48416)"><path style="fill:none;stroke:#000;stroke-width:1px;stroke-linecap:butt;stroke-linejoin:miter;stroke-opacity:1" id="path10552" d="m 357.25,492.91161 35.28033,0 0,-52.14286 82.46967,0" transform="translate(-928.4063,-79.84375)"/><path id="path10556" d="m -568.1563,309.03125 32.25,0 0,14.85714 82.5,0" style="fill:none;stroke:#000;stroke-width:1px;stroke-linecap:butt;stroke-linejoin:miter;stroke-opacity:1"/><path style="fill:none;stroke:#000;stroke-width:1px;stroke-linecap:butt;stroke-linejoin:miter;stroke-opacity:1" id="path10629" d="m -575.4063,492.06786 39.53033,0 0,-48.14286 82.46967,0"/><path id="path86913" d="m -571.1563,430.06786 48.28033,0 0,-27.14286 69.46967,0" style="fill:none;stroke:#000;stroke-width:1px;stroke-linecap:butt;stroke-linejoin:miter;stroke-opacity:1"/></g></svg>