<svg xmlns="http://www.w3.org/2000/svg" xmlns:svg="http://www.w3.org/2000/svg" id="svg86343" width="148" height="192" version="1.1"><metadata id="metadata86349"/><g style="opacity:.2;display:inline" id="g10631" transform="translate(592.43375,-302.48416)"><path style="fill:none;stroke:#000;stroke-width:1px;stroke-linecap:butt;stroke-linejoin:miter;stroke-opacity:1" id="path10552" d="m 353.5,569.875 38.0625,0 0,-166.14286 83.4375,0" transform="translate(-928.4063,-79.84375)"/></g><path style="color:#000;fill:#d3d7cf;fill-opacity:1;fill-rule:nonzero;stroke:#babdb6;stroke-width:.99999994px;stroke-linecap:butt;stroke-linejoin:miter;stroke-miterlimit:4;stroke-opacity:1;stroke-dasharray:none;stroke-dashoffset:0;marker:none;visibility:visible;display:inline;overflow:visible;enable-background:accumulate" id="path14406" d="m 9.320334,142.86781 c 0.5052639,10.77933 -1.425426,24.83353 -1.425426,24.83353 l 1.559872,1.05225 c 0,0 1.362729,5.49117 1.850845,8.2077 0.488109,2.71653 3.679579,7.5712 3.679579,7.5712 l 1.545431,1e-5 -8e-6,3.89851 c -0.03586,1.30926 1.983788,1.38546 1.983788,9e-5 l 8e-6,-3.89851 1.451666,0 c 0,0 3.191479,-4.85469 3.679602,-7.57122 0.488109,-2.71652 1.850829,-8.20768 1.850829,-8.20768 l 1.559865,-1.05226 c 0,0 -1.930689,-14.0542 -1.425411,-24.83354 C 26.136241,132.08855 28.49126,113.93051 28.49126,91.938108 28.491252,69.945706 24.362076,8.8089377 23.653056,6.0730443 22.956873,3.3867824 20.471645,1.0322717 17.55539,1.12738 c -0.0525,-0.00312 -0.107307,0.0019 -0.159523,0 C 14.477429,1.029372 11.994773,3.3852354 11.298202,6.0730375 10.589174,8.8089377 6.460005,69.945698 6.460028,91.938064 c 2.3e-5,21.992366 2.355035,40.150416 2.860306,50.929746 z"/></svg>