<svg xmlns="http://www.w3.org/2000/svg" xmlns:svg="http://www.w3.org/2000/svg" xmlns:xlink="http://www.w3.org/1999/xlink" id="svg2" width="48" height="48" x="0" y="0" enable-background="new 0 0 40.425 46.214" version="1.0" viewBox="0 0 40.425 46.214" xml:space="preserve"><metadata id="metadata44"/><defs id="defs42"><radialGradient id="radialGradient2479" cx="38.659" cy="9.341" r="8.342" fx="38.659" fy="9.341" gradientUnits="userSpaceOnUse" xlink:href="#linearGradient2378"/><linearGradient id="linearGradient2378"><stop id="stop2386" offset="0" style="stop-color:#fff;stop-opacity:1"/><stop style="stop-color:#27dc16;stop-opacity:1" id="stop2382" offset="1"/></linearGradient><linearGradient id="linearGradient3702"><stop id="stop3704" offset="0" style="stop-color:black;stop-opacity:0"/><stop style="stop-color:black;stop-opacity:1" id="stop3710" offset=".5"/><stop id="stop3706" offset="1" style="stop-color:black;stop-opacity:0"/></linearGradient><linearGradient id="linearGradient6732"><stop id="stop6734" offset="0" style="stop-color:#fff;stop-opacity:1"/><stop id="stop6736" offset="1" style="stop-color:#ddd;stop-opacity:1"/></linearGradient><linearGradient id="linearGradient4585"><stop id="stop4587" offset="0" style="stop-color:#9e9e9e;stop-opacity:1"/><stop id="stop4589" offset="1" style="stop-color:#ddd;stop-opacity:0"/></linearGradient><radialGradient id="radialGradient86956" cx="26.49" cy="5.57" r="4.055" fx="26.49" fy="5.57" gradientTransform="matrix(1.0059869,5.3782029e-7,-9.45767e-7,1.1767077,-0.1585918,-0.9842761)" gradientUnits="userSpaceOnUse" xlink:href="#linearGradient2378"/><radialGradient id="radialGradient86964" cx="26.49" cy="5.57" r="4.055" fx="26.49" fy="5.57" gradientTransform="matrix(1.0059869,5.3782029e-7,-9.45767e-7,1.1767077,-0.1585918,-0.9842761)" gradientUnits="userSpaceOnUse" xlink:href="#linearGradient2378"/><radialGradient id="radialGradient86966" cx="26.49" cy="5.57" r="4.055" fx="26.49" fy="5.57" gradientTransform="matrix(1.0059869,5.3782029e-7,-9.45767e-7,1.1767077,-0.1585918,-0.9842761)" gradientUnits="userSpaceOnUse" xlink:href="#linearGradient2378"/></defs><g id="g35" transform="matrix(-1.1916623,0,0,1.4021101,35.910183,14.334323)" style="fill:url(#radialGradient86956);fill-opacity:1;stroke:#31ae00;stroke-width:.45244551;stroke-miterlimit:4;stroke-dasharray:none;stroke-opacity:1"><circle style="fill:url(#radialGradient86964);fill-opacity:1;stroke:#31ae00;stroke-width:.45244551;stroke-miterlimit:4;stroke-dasharray:none;stroke-opacity:1" id="circle37" cx="26.49" cy="5.57" r="3.829" stroke-miterlimit="3.864"/><path style="fill:url(#radialGradient86966);fill-opacity:1;stroke:#31ae00;stroke-width:.45244551;stroke-miterlimit:4;stroke-dasharray:none;stroke-opacity:1" id="path39" stroke-miterlimit="3.864"/></g><g id="g7" transform="matrix(-1,0,0,1,40.436756,0)" style="fill:#2f2f2f;fill-opacity:1"><path style="fill:#2f2f2f;fill-opacity:1;fill-rule:evenodd" id="path9" d="M 20.569,13.286 C 20.843,15.459 20.791,17.834 20.82,18.542 C 20.865,18.917 21.913,19.241 22.094,18.877 C 22.301,17.514 22.586,14.847 22.92,13.455 C 23.372,9.917 23.886,8.247 24.072,7.257 C 24.58,4.567 25.014,3.12 26.762,3.12 C 28.384,3.12 28.623,5.167 28.153,8.165 C 28.025,9.379 28.036,12.24 27.433,14.894 C 27.165,16.691 26.962,21.278 27.139,24.981 C 27.189,26.045 27.669,27.315 28.242,27.945 C 29.462,27.773 30.379,24.377 31.988,22.847 C 32.809,21.464 34.883,19.299 36.951,19.299 C 39.243,19.299 39.292,21 38.345,22.262 C 37.187,23.806 36.525,24.528 36.079,25.802 C 35.633,27.076 33.758,29.778 33.471,31.209 C 32.902,34.054 32.471,35.105 29.284,37.661 C 27.783,38.865 27.302,39.637 26.855,40.401 C 26.347,41.273 26.409,44.721 26.409,46.212 L 10.64,46.212 C 10.64,46.212 10.767,43.587 10.513,42.058 C 10.461,41.746 10.105,39.613 9.176,38.231 C 8.317,36.954 5.902,32.306 5.902,26.836 C 5.902,24.026 4.39,21.718 3.854,19.533 C 3.591,17.833 2.638,15.423 2.57,14.709 C 1.684,11.559 2.132,10.118 3.741,10.118 C 5.132,10.118 5.528,11.927 6.093,13.622 C 6.258,14.52 7.505,16.934 7.788,18.233 C 8.038,19.088 8.897,21.556 9.437,21.727 C 9.75,21.784 10.151,21.523 10.291,21.043 C 10.52,20.26 9.818,18.945 9.539,15.26 C 9.087,12.343 9.17,10.139 9.116,8.949 C 8.653,5.424 9.133,3.598 10.693,3.598 C 12.176,3.598 12.568,4.455 13.02,7.936 C 13.189,9.518 13.754,12.095 14.037,14.864 C 14.213,16.364 14.639,18.601 14.98,19.17 C 15.285,19.503 15.919,19.198 15.9,18.848 C 15.894,16.377 15.732,14.977 15.958,12.999 C 15.845,10.287 16.219,7.823 16.219,6.467 C 16.219,3.494 16.502,1.473 18.358,1.473 C 20.333,1.473 20.287,3.776 20.287,6.806 C 20.399,7.545 20.456,10.087 20.569,13.286 z" clip-rule="evenodd"/></g></svg>