<svg xmlns="http://www.w3.org/2000/svg" xmlns:svg="http://www.w3.org/2000/svg" id="svg4978" width="128" height="128" version="1.1"><metadata id="metadata4983"/><g id="layer1" transform="translate(0,-924.36215)"><g style="display:inline" id="g14317" transform="matrix(7.1989829,0,0,7.1989829,-772.01578,-783.40043)"><g style="stroke:#000;stroke-opacity:1" id="g14258" transform="translate(69,-449)"><path style="color:#000;fill:none;stroke:#000;stroke-width:2.15384626;stroke-miterlimit:4;stroke-opacity:1;stroke-dasharray:none;marker:none;visibility:visible;display:inline;overflow:visible;enable-background:accumulate" id="path14260" d="m 55,696 c 0,3.86599 -3.134007,7 -7,7 -3.865993,0 -7,-3.13401 -7,-7 0,-3.86599 3.134007,-7 7,-7 3.865993,0 7,3.13401 7,7 z" transform="matrix(0.92857143,0,0,0.92857143,2.9285714,49.21429)"/><path style="fill:none;stroke:#000;stroke-width:1;stroke-linecap:round;stroke-linejoin:round;stroke-miterlimit:4;stroke-opacity:1;stroke-dasharray:none" id="path14262" d="m 45.5,693.5 2,2 3,-3"/></g><g id="g4692" transform="translate(69,-450)"><path id="path3869" d="m 55,696 c 0,3.86599 -3.134007,7 -7,7 -3.865993,0 -7,-3.13401 -7,-7 0,-3.86599 3.134007,-7 7,-7 3.865993,0 7,3.13401 7,7 z" transform="matrix(0.92857143,0,0,0.92857143,2.9285714,49.21429)" style="color:#000;fill:none;stroke:#fff;stroke-width:2.15384626;stroke-miterlimit:4;stroke-opacity:1;stroke-dasharray:none;marker:none;visibility:visible;display:inline;overflow:visible;enable-background:accumulate"/><path id="path4639" d="m 45.5,693.5 2,2 3,-3" style="fill:none;stroke:#fff;stroke-width:1;stroke-linecap:round;stroke-linejoin:round;stroke-miterlimit:4;stroke-opacity:1;stroke-dasharray:none"/></g></g></g></svg>