<svg xmlns="http://www.w3.org/2000/svg" xmlns:svg="http://www.w3.org/2000/svg" id="svg5" width="10" height="10" version="1.1" viewBox="0 0 10 10"><metadata id="metadata11"/><g id="g868" style="opacity:1"><path id="path872" d="M 5.0136719 0 C 4.6299657 -0.00525415 4.2770886 0.20950752 4.1054688 0.55273438 L 0.10546875 8.5527344 C -0.22691966 9.2176835 0.2566028 9.9999764 1 10 L 9 10 C 9.7433972 9.9999764 10.22692 9.2176835 9.8945312 8.5527344 L 5.8945312 0.55273438 C 5.7273166 0.21831824 5.3875286 0.00510321 5.0136719 0 z M 4 3 L 6 3 L 6 5.5 C 6 5.5 6 6 5.5 6 L 4.5 6 C 4 6 4 5.5 4 5.5 L 4 3 z M 4.5 7 L 5.5 7 C 5.777 7 6 7.223 6 7.5 L 6 8.5 C 6 8.777 5.777 9 5.5 9 L 4.5 9 C 4.223 9 4 8.777 4 8.5 L 4 7.5 C 4 7.223 4.223 7 4.5 7 z" style="color:#000;font-style:normal;font-variant:normal;font-weight:400;font-stretch:normal;font-size:medium;line-height:normal;font-family:sans-serif;font-variant-ligatures:normal;font-variant-position:normal;font-variant-caps:normal;font-variant-numeric:normal;font-variant-alternates:normal;font-variant-east-asian:normal;font-feature-settings:normal;font-variation-settings:normal;text-indent:0;text-align:start;text-decoration:none;text-decoration-line:none;text-decoration-style:solid;text-decoration-color:#000;letter-spacing:normal;word-spacing:normal;text-transform:none;writing-mode:lr-tb;direction:ltr;text-orientation:mixed;dominant-baseline:auto;baseline-shift:baseline;text-anchor:start;white-space:normal;shape-padding:0;shape-margin:0;inline-size:0;clip-rule:nonzero;display:inline;overflow:visible;visibility:visible;isolation:auto;mix-blend-mode:normal;color-interpolation:sRGB;color-interpolation-filters:linearRGB;solid-color:#000;solid-opacity:1;vector-effect:none;fill:#f57900;fill-opacity:1;fill-rule:nonzero;stroke:none;stroke-width:2;stroke-linecap:butt;stroke-linejoin:round;stroke-miterlimit:4;stroke-dasharray:none;stroke-dashoffset:0;stroke-opacity:1;color-rendering:auto;image-rendering:auto;shape-rendering:auto;text-rendering:auto;enable-background:accumulate;stop-color:#000;stop-opacity:1"/></g></svg>